<svg xmlns="http://www.w3.org/2000/svg" version="1.0" preserveAspectRatio="xMidYMid meet" viewBox="185 56.53 251.1 315.32">

<g transform="translate(0.000000,420.000000) scale(0.100000,-0.100000)" fill="#000000" stroke="none">
<path d="M2925 3629 c-350 -42 -651 -249 -829 -572 -37 -67 -91 -229 -106 -317 -17 -93 -17 -295 -1 -375 39 -192 133 -390 247 -518 19 -20 34 -39 34 -42 0 -3 -90 -148 -200 -321 -110 -174 -200 -320 -200 -325 0 -5 245 -9 560 -9 553 0 560 0 560 -20 0 -19 7 -20 120 -20 113 0 120 1 120 20 0 20 8 20 565 22 l566 3 -211 330 c-117 182 -218 336 -225 344 -7 7 -18 12 -24 10 -6 -2 71 -145 170 -317 100 -172 180 -314 178 -317 -11 -10 -114 53 -129 80 -9 17 -73 142 -143 278 l-125 249 64 86 c112 152 181 311 209 486 91 562 -284 1111 -838 1226 -116 24 -259 31 -362 19z m429 -65 c89 -25 196 -73 165 -74 -20 0 -285 66 -321 81 -16 6 -28 16 -28 21 0 14 76 2 184 -28z m-56 -63 c108 -22 209 -42 225 -46 22 -6 27 -4 27 10 0 23 13 17 107 -47 95 -63 208 -178 274 -276 27 -41 49 -77 49 -82 0 -12 -39 -20 -98 -20 -32 0 -51 -4 -47 -10 3 -5 -5 -96 -19 -202 -14 -106 -28 -213 -31 -238 -10 -79 -16 -100 -31 -100 -9 0 -14 11 -14 34 0 19 -5 36 -10 38 -7 2 8 95 38 242 42 207 46 239 33 243 -159 53 -251 166 -259 318 l-4 70 -67 2 c-36 2 -158 15 -271 31 -159 22 -205 31 -205 43 0 13 35 24 88 28 10 0 107 -17 215 -38z m-143 -80 c77 -6 193 -13 258 -16 88 -5 117 -10 117 -20 0 -19 -517 -26 -540 -9 -8 7 -24 14 -35 16 -11 2 -21 11 -23 21 -4 21 16 21 223 8z m375 -96 c0 -8 -5 -15 -11 -15 -6 0 -84 -9 -172 -21 -131 -17 -168 -19 -200 -9 -73 22 -38 34 129 46 241 16 254 16 254 -1z m20 -55 c0 -15 -25 -25 -208 -79 -167 -50 -263 -64 -277 -41 -3 5 7 15 22 21 15 7 42 18 60 25 17 8 42 14 55 15 12 0 88 15 168 34 159 37 180 40 180 25z m10 -63 c0 -12 -62 -49 -240 -145 -36 -19 -75 -41 -88 -49 -12 -7 -27 -11 -32 -8 -14 9 -1 33 21 40 16 5 18 9 8 21 -6 8 -9 18 -5 21 9 10 307 131 324 132 6 1 12 -5 12 -12z m39 -39 c0 -15 -411 -351 -434 -356 -10 -2 -15 4 -15 17 0 12 4 21 9 21 5 0 13 11 18 25 5 16 75 72 203 164 107 77 201 140 208 141 6 0 12 -6 11 -12z m31 -40 c0 -7 -73 -94 -161 -193 -120 -133 -169 -182 -191 -186 -16 -4 -37 -14 -47 -23 -22 -20 -31 -20 -31 -2 0 18 403 415 423 416 4 0 7 -6 7 -12z m43 -44 c9 -10 -173 -287 -212 -321 -77 -67 -54 14 37 132 148 192 159 204 175 189z m62 -24 c3 -5 1 -17 -4 -27 -17 -29 -141 -313 -141 -321 0 -19 -23 -32 -37 -20 -11 9 -15 7 -20 -10 -5 -22 -33 -31 -33 -11 0 11 185 364 203 387 11 14 24 16 32 2z m5 -206 c-22 -87 -45 -163 -51 -171 -17 -20 -29 -5 -29 37 0 38 83 292 104 319 24 31 16 -31 -24 -185z m158 -90 c1 -146 -2 -268 -7 -279 -5 -11 -12 -28 -15 -37 -3 -10 -12 -18 -21 -18 -18 0 -19 27 -5 260 17 295 21 341 34 337 8 -3 12 -80 14 -263z m62 253 c0 -7 9 -84 20 -171 16 -129 18 -167 8 -198 -6 -21 -16 -37 -22 -35 -11 4 -19 74 -31 290 -6 112 -5 127 9 127 9 0 16 -6 16 -13z m73 -67 c36 -86 64 -206 73 -304 5 -59 4 -77 -4 -72 -7 4 -12 18 -12 31 0 13 -5 25 -10 27 -6 2 -17 41 -25 86 -8 46 -26 130 -40 187 -37 153 -31 166 18 45z m-992 -258 c7 -19 4 -24 -25 -36 -18 -8 -46 -31 -62 -51 -16 -21 -51 -62 -77 -93 -54 -60 -142 -191 -134 -198 3 -3 15 12 28 32 12 21 58 78 100 128 43 50 92 108 110 129 17 20 40 37 51 37 18 0 20 -5 16 -44 -4 -35 -2 -43 11 -42 11 1 17 -9 19 -33 7 -76 -23 -108 -40 -42 -18 69 -66 47 -119 -55 -20 -38 -51 -96 -69 -128 -19 -33 -29 -56 -22 -52 15 9 66 89 106 166 40 76 55 93 73 78 21 -17 10 -51 -77 -248 -42 -96 -92 -211 -110 -255 -39 -94 -97 -176 -148 -211 -111 -76 -175 -112 -188 -107 -8 3 -40 38 -70 79 -30 40 -67 82 -82 93 l-27 19 27 21 c21 17 28 33 33 79 4 31 15 78 25 103 11 25 25 77 33 115 9 39 29 92 46 119 57 92 81 144 81 173 0 37 17 54 42 41 27 -14 23 -34 -28 -128 -34 -63 -41 -81 -24 -66 12 11 42 59 66 107 45 89 57 102 204 218 62 49 98 60 108 32 2 -6 -29 -42 -69 -80 -117 -107 -143 -135 -166 -183 -12 -24 -33 -59 -48 -78 -14 -19 -25 -39 -25 -44 0 -21 43 30 77 91 41 73 305 345 331 340 8 -2 18 -13 23 -26z m21 -338 c27 -77 23 -127 -13 -181 -17 -25 -42 -82 -54 -127 -31 -110 -47 -148 -100 -222 -50 -70 -51 -72 -30 -131 47 -134 -133 -168 -224 -42 -17 23 -31 45 -31 48 0 3 23 21 50 38 90 59 138 135 212 336 11 29 27 33 59 16 18 -9 19 -8 8 10 -11 16 -9 25 15 55 25 33 56 95 56 113 0 4 -16 -20 -36 -53 -81 -136 -89 -111 -14 47 33 68 60 130 60 137 0 29 25 3 42 -44z m922 -823 l136 -270 -32 -4 -33 -4 36 -1 c19 -1 60 -14 90 -29 l54 -28 -70 -3 c-113 -5 -319 16 -477 48 -318 65 -442 50 -476 -58 l-14 -42 -89 0 c-61 0 -89 4 -89 12 0 6 -11 26 -25 44 -56 73 -176 82 -490 34 -217 -33 -517 -51 -529 -32 -3 6 46 102 111 214 64 111 130 228 146 258 62 112 61 111 83 95 18 -14 14 -24 -100 -247 -65 -128 -123 -239 -128 -245 -6 -7 -33 -26 -62 -43 -28 -16 -48 -30 -43 -30 4 0 31 14 60 30 31 18 70 31 93 31 l39 2 -37 6 -37 6 120 232 120 231 71 -53 c157 -118 348 -189 561 -208 l127 -11 0 -110 0 -110 -32 31 c-33 31 -69 53 -85 53 -4 -1 6 -8 22 -17 39 -20 64 -42 84 -73 l16 -25 56 57 c63 66 61 79 -2 18 -23 -22 -44 -40 -46 -40 -1 0 -3 49 -3 109 0 120 1 121 65 121 86 0 228 41 361 105 81 39 247 156 283 198 7 10 17 17 21 17 4 0 69 -121 144 -269z"/>
<path d="M2810 1361 c41 -5 93 -13 114 -19 22 -7 42 -10 44 -7 9 9 -79 26 -153 30 l-80 4 75 -8z"/>
<path d="M3403 1363 c15 -2 39 -2 55 0 15 2 2 4 -28 4 -30 0 -43 -2 -27 -4z"/>
<path d="M2683 1353 c9 -2 25 -2 35 0 9 3 1 5 -18 5 -19 0 -27 -2 -17 -5z"/>
<path d="M3313 1353 c9 -2 25 -2 35 0 9 3 1 5 -18 5 -19 0 -27 -2 -17 -5z"/>
<path d="M3503 1353 c9 -2 23 -2 30 0 6 3 -1 5 -18 5 -16 0 -22 -2 -12 -5z"/>
<path d="M2552 1333 c-40 -9 -71 -18 -68 -20 4 -5 168 26 175 33 8 7 -33 2 -107 -13z"/>
<path d="M3240 1340 c-11 -8 -7 -9 15 -4 37 8 45 14 19 14 -10 0 -26 -5 -34 -10z"/>
<path d="M3551 1346 c2 -2 27 -6 54 -9 34 -4 42 -3 25 3 -25 8 -87 13 -79 6z"/>
<path d="M3685 1320 c17 -4 39 -8 50 -8 16 0 15 2 -5 8 -14 4 -36 8 -50 8 -22 0 -22 -1 5 -8z"/>
<path d="M2400 1300 c-20 -6 -21 -8 -5 -8 11 0 34 4 50 8 27 7 27 8 5 8 -14 0 -36 -4 -50 -8z"/>
<path d="M3768 1303 c6 -2 18 -2 25 0 6 3 1 5 -13 5 -14 0 -19 -2 -12 -5z"/>
<path d="M3818 1293 c6 -2 18 -2 25 0 6 3 1 5 -13 5 -14 0 -19 -2 -12 -5z"/>
<path d="M2230 1280 l-45 -7 40 -1 c22 0 65 3 95 8 l55 7 -50 0 c-27 0 -70 -3 -95 -7z"/>
<path d="M3920 1274 c36 -7 81 -13 100 -13 19 1 -3 7 -50 15 -107 17 -136 16 -50 -2z"/>
<path d="M2870 965 c0 -74 16 -105 22 -42 3 28 7 32 36 35 31 3 32 2 32 -32 0 -20 5 -36 10 -36 6 0 10 32 10 75 0 43 -4 75 -10 75 -5 0 -10 -13 -10 -30 0 -28 -3 -30 -35 -30 -32 0 -35 2 -35 30 0 17 -4 30 -10 30 -6 0 -10 -32 -10 -75z"/>
<path d="M3080 965 c0 -43 4 -75 10 -75 6 0 10 14 10 30 0 26 4 30 28 30 34 0 52 16 52 47 0 25 -31 43 -76 43 -23 0 -24 -2 -24 -75z m67 44 c17 -17 4 -39 -23 -39 -19 0 -24 5 -24 25 0 27 26 35 47 14z"/>
<path d="M3240 965 c0 -74 16 -105 22 -42 3 28 7 32 36 35 31 3 32 2 32 -32 0 -20 5 -36 10 -36 6 0 10 32 10 75 0 43 -4 75 -10 75 -5 0 -10 -13 -10 -30 0 -28 -3 -30 -35 -30 -32 0 -35 2 -35 30 0 17 -4 30 -10 30 -6 0 -10 -32 -10 -75z"/>
<path d="M3020 905 c0 -8 5 -15 10 -15 6 0 10 7 10 15 0 8 -4 15 -10 15 -5 0 -10 -7 -10 -15z"/>
<path d="M3180 905 c0 -8 5 -15 10 -15 6 0 10 7 10 15 0 8 -4 15 -10 15 -5 0 -10 -7 -10 -15z"/>
<path d="M1850 670 c0 -82 3 -100 15 -100 11 0 15 12 15 46 l0 45 43 -3 c42 -3 42 -3 45 -45 2 -29 8 -43 18 -43 11 0 14 20 14 100 0 82 -3 100 -15 100 -11 0 -15 -11 -15 -40 l0 -40 -45 0 -45 0 0 40 c0 29 -4 40 -15 40 -12 0 -15 -18 -15 -100z"/>
<path d="M2200 670 c0 -82 3 -100 15 -100 8 0 15 5 15 12 0 9 3 9 12 0 7 -7 24 -12 39 -12 52 0 77 70 43 119 -13 18 -24 22 -50 19 -33 -4 -34 -3 -34 29 0 26 -4 33 -20 33 -19 0 -20 -7 -20 -100z m100 -5 c14 -37 -4 -77 -33 -73 -17 2 -23 11 -25 36 -4 45 3 62 28 62 13 0 24 -10 30 -25z"/>
<path d="M2900 670 c0 -93 1 -100 20 -100 17 0 20 7 20 40 0 40 0 40 39 40 49 0 73 22 69 64 -4 38 -35 56 -100 56 l-48 0 0 -100z m104 55 c21 -21 10 -42 -25 -47 -35 -5 -39 -2 -39 34 0 23 4 28 24 28 14 0 31 -7 40 -15z"/>
<path d="M3860 670 c0 -82 3 -100 15 -100 11 0 15 12 15 46 l0 45 43 -3 c42 -3 42 -3 45 -45 2 -29 8 -43 18 -43 11 0 14 20 14 100 0 82 -3 100 -15 100 -11 0 -15 -11 -15 -40 l0 -40 -45 0 -45 0 0 40 c0 29 -4 40 -15 40 -12 0 -15 -18 -15 -100z"/>
<path d="M4210 670 c0 -93 1 -100 20 -100 19 0 20 7 20 100 0 93 -1 100 -20 100 -19 0 -20 -7 -20 -100z"/>
<path d="M4290 670 c0 -82 3 -100 15 -100 12 0 15 18 15 100 0 82 -3 100 -15 100 -12 0 -15 -18 -15 -100z"/>
<path d="M2057 692 c-21 -23 -22 -86 -1 -106 20 -20 78 -21 94 -1 18 22 4 31 -25 15 -20 -11 -27 -11 -40 0 -26 22 -17 30 36 30 51 0 51 0 45 28 -4 15 -14 33 -23 40 -24 18 -67 15 -86 -6z m71 -24 c3 -14 -3 -18 -27 -18 -34 0 -34 0 -25 25 8 21 48 16 52 -7z"/>
<path d="M2370 638 c0 -61 2 -68 20 -68 17 0 20 7 20 49 0 45 12 69 35 69 5 0 11 5 13 10 2 6 -17 10 -42 10 l-46 -1 0 -69z"/>
<path d="M2496 694 c-32 -32 -28 -92 8 -116 22 -15 76 -8 96 12 45 45 11 120 -54 120 -19 0 -42 -7 -50 -16z m82 -51 c3 -35 0 -42 -18 -48 -28 -9 -50 11 -50 44 0 33 18 53 45 49 16 -2 21 -12 23 -45z"/>
<path d="M2650 639 c0 -62 2 -69 20 -69 16 0 19 8 22 57 2 47 6 58 22 61 26 5 36 -15 36 -70 0 -36 4 -48 15 -48 12 0 15 14 15 64 0 73 -1 74 -82 74 l-48 0 0 -69z"/>
<path d="M3090 640 c0 -56 3 -70 15 -70 11 0 15 11 15 41 0 48 16 83 35 75 7 -2 16 2 19 10 7 17 -25 19 -42 2 -9 -9 -12 -9 -12 0 0 7 -7 12 -15 12 -12 0 -15 -14 -15 -70z"/>
<path d="M3213 703 c-7 -2 -13 -11 -13 -19 0 -17 5 -17 29 -2 20 12 51 5 51 -11 0 -6 -18 -15 -41 -21 -79 -21 -63 -74 22 -76 l54 -1 -4 61 c-1 34 -8 64 -15 68 -12 9 -64 9 -83 1z m65 -85 c-2 -17 -10 -23 -27 -23 -32 0 -39 23 -9 34 35 15 40 13 36 -11z"/>
<path d="M3345 693 c4 -10 17 -44 28 -77 l22 -58 -23 -18 c-28 -23 -28 -30 2 -30 31 0 38 10 74 113 26 71 29 87 16 87 -13 0 -22 -14 -49 -85 -6 -16 -10 -10 -23 33 -12 39 -21 52 -35 52 -14 0 -17 -5 -12 -17z"/>
<path d="M3516 688 c-36 -50 -8 -118 48 -118 30 0 56 15 56 32 0 4 -7 8 -15 8 -8 0 -15 -4 -15 -10 0 -14 -33 -13 -48 2 -22 22 -13 28 38 28 41 0 50 3 50 18 0 34 -29 62 -65 62 -24 0 -39 -7 -49 -22z m72 -10 c20 -20 14 -28 -23 -28 -19 0 -35 4 -35 8 0 12 22 32 35 32 6 0 16 -5 23 -12z"/>
<path d="M3670 639 c0 -55 3 -69 15 -69 11 0 15 12 15 49 0 49 18 79 40 66 5 -3 10 1 10 9 0 11 -11 15 -40 14 l-40 0 0 -69z"/>
<path d="M4063 695 c-8 -23 2 -28 25 -14 20 13 52 7 52 -10 0 -5 -19 -15 -42 -23 -38 -11 -43 -16 -43 -43 0 -30 0 -30 60 -32 l60 -1 -3 56 c-2 32 -9 63 -14 70 -15 18 -87 16 -95 -3z m75 -77 c-2 -17 -10 -23 -27 -23 -32 0 -39 23 -9 34 35 15 40 13 36 -11z"/>
<path d="M2198 483 c452 -2 1192 -2 1645 0 452 1 82 2 -823 2 -905 0 -1275 -1 -822 -2z"/>
</g>
</svg>