<svg xmlns="http://www.w3.org/2000/svg" width="500" height="500" viewBox="0 0 500 500" version="1.1"><path d="M 208.500 132.592 C 202.450 132.771, 186.025 133.411, 172 134.013 C 157.975 134.615, 142.225 135.548, 137 136.086 C 131.775 136.625, 125.025 137.554, 122 138.150 C 118.975 138.747, 114.025 140.485, 111 142.012 C 107.975 143.540, 103.475 146.586, 101 148.783 C 98.525 150.979, 95.046 155.197, 93.268 158.156 C 91.491 161.115, 89.143 167.030, 88.051 171.299 C 86.960 175.568, 85.278 185.460, 84.314 193.281 C 82.897 204.774, 82.558 215.647, 82.546 250 C 82.536 278.907, 82.953 296.108, 83.850 303.782 C 84.576 309.987, 86.009 319.162, 87.035 324.170 C 88.061 329.179, 90.134 335.802, 91.642 338.888 C 93.150 341.975, 96.660 346.779, 99.442 349.565 C 102.235 352.361, 107.411 356.048, 111 357.798 C 115.270 359.880, 120.759 361.481, 127 362.465 C 132.225 363.288, 143.700 364.418, 152.500 364.975 C 161.300 365.532, 184.475 366.491, 204 367.105 C 224.273 367.743, 254.513 367.945, 274.500 367.576 C 293.750 367.220, 318.950 366.492, 330.500 365.958 C 342.050 365.424, 356.225 364.529, 362 363.968 C 367.775 363.407, 374.975 362.457, 378 361.856 C 381.025 361.256, 386.144 359.432, 389.376 357.804 C 392.609 356.176, 397.369 352.865, 399.954 350.446 C 402.540 348.027, 405.819 343.900, 407.240 341.274 C 408.661 338.648, 410.529 334.025, 411.391 331 C 412.253 327.975, 413.644 320.882, 414.482 315.238 C 415.320 309.593, 416.508 296.993, 417.123 287.238 C 417.793 276.602, 418.018 256.487, 417.685 237 C 417.336 216.516, 416.548 199.976, 415.554 192.264 C 414.687 185.534, 413.277 177.005, 412.420 173.310 C 411.563 169.615, 409.673 164.164, 408.220 161.198 C 406.768 158.231, 403.924 153.935, 401.902 151.652 C 399.879 149.368, 395.803 146.046, 392.844 144.268 C 389.885 142.491, 384.097 140.182, 379.982 139.136 C 375.867 138.091, 367.100 136.734, 360.500 136.120 C 353.900 135.506, 339.275 134.545, 328 133.984 C 316.725 133.424, 287.700 132.807, 263.500 132.615 C 239.300 132.423, 214.550 132.413, 208.500 132.592 M 216 250 L 216 301.230 218.492 299.597 C 219.862 298.699, 229.875 292.869, 240.742 286.641 C 251.609 280.412, 269.934 269.894, 281.464 263.267 C 292.994 256.640, 302.574 250.777, 302.754 250.237 C 302.934 249.698, 298 246.346, 291.790 242.787 C 285.581 239.229, 273.075 232.045, 264 226.823 C 254.925 221.601, 241.425 213.812, 234 209.514 C 226.575 205.216, 219.488 201.041, 218.250 200.235 L 216 198.770 216 250" stroke="none" fill="#ff0000" fill-rule="evenodd"/><path d="M 210.264 132.718 C 211.784 132.947, 214.034 132.941, 215.264 132.704 C 216.494 132.467, 215.250 132.279, 212.500 132.286 C 209.750 132.294, 208.744 132.488, 210.264 132.718 M 283.264 132.718 C 284.784 132.947, 287.034 132.941, 288.264 132.704 C 289.494 132.467, 288.250 132.279, 285.500 132.286 C 282.750 132.294, 281.744 132.488, 283.264 132.718 M 216.465 250 C 216.465 278.325, 216.593 289.913, 216.749 275.750 C 216.906 261.588, 216.906 238.413, 216.749 224.250 C 216.593 210.088, 216.465 221.675, 216.465 250 M 418.343 249.500 C 418.346 253.900, 418.522 255.576, 418.733 253.224 C 418.945 250.872, 418.942 247.272, 418.727 245.224 C 418.512 243.176, 418.339 245.100, 418.343 249.500 M 81.336 250 C 81.336 254.125, 81.513 255.813, 81.728 253.750 C 81.944 251.688, 81.944 248.313, 81.728 246.250 C 81.513 244.188, 81.336 245.875, 81.336 250 M 211.264 367.718 C 212.784 367.947, 215.034 367.941, 216.264 367.704 C 217.494 367.467, 216.250 367.279, 213.500 367.286 C 210.750 367.294, 209.744 367.488, 211.264 367.718 M 284.250 367.716 C 285.762 367.945, 288.238 367.945, 289.750 367.716 C 291.262 367.487, 290.025 367.300, 287 367.300 C 283.975 367.300, 282.738 367.487, 284.250 367.716" stroke="none" fill="#fc5151" fill-rule="evenodd"/><path d="" stroke="none" fill="#fc0404" fill-rule="evenodd"/></svg>